<svg width="64" height="64" viewBox="0 0 64 64" fill="none" xmlns="http://www.w3.org/2000/svg">
  <!-- 懒猫头部 -->
  <circle cx="32" cy="28" r="20" fill="#FFB6C1" stroke="#FF69B4" stroke-width="2"/>
  
  <!-- 懒猫耳朵 -->
  <path d="M18 18 Q16 12 20 10 Q24 8 28 12" fill="#FFB6C1" stroke="#FF69B4" stroke-width="2"/>
  <path d="M46 18 Q48 12 44 10 Q40 8 36 12" fill="#FFB6C1" stroke="#FF69B4" stroke-width="2"/>
  
  <!-- 内耳 -->
  <path d="M20 16 Q18 14 20 12 Q22 14 20 16" fill="#FF69B4"/>
  <path d="M44 16 Q46 14 44 12 Q42 14 44 16" fill="#FF69B4"/>
  
  <!-- 懒猫眼睛 -->
  <ellipse cx="26" cy="24" rx="3" ry="4" fill="#2D3748"/>
  <ellipse cx="38" cy="24" rx="3" ry="4" fill="#2D3748"/>
  
  <!-- 眼睛高光 -->
  <ellipse cx="27" cy="22" rx="1" ry="1.5" fill="#FFFFFF"/>
  <ellipse cx="39" cy="22" rx="1" ry="1.5" fill="#FFFFFF"/>
  
  <!-- 懒猫鼻子 -->
  <path d="M32 30 Q30 28 32 28 Q34 28 32 30" fill="#FF69B4"/>
  
  <!-- 懒猫嘴巴 -->
  <path d="M32 32 Q28 34 24 32" stroke="#2D3748" stroke-width="1.5" fill="none"/>
  <path d="M32 32 Q36 34 40 32" stroke="#2D3748" stroke-width="1.5" fill="none"/>
  
  <!-- 懒猫胡须 -->
  <line x1="20" y1="30" x2="16" y2="32" stroke="#2D3748" stroke-width="1"/>
  <line x1="20" y1="34" x2="16" y2="36" stroke="#2D3748" stroke-width="1"/>
  <line x1="44" y1="30" x2="48" y2="32" stroke="#2D3748" stroke-width="1"/>
  <line x1="44" y1="34" x2="48" y2="36" stroke="#2D3748" stroke-width="1"/>
  
  <!-- 懒猫身体 -->
  <ellipse cx="32" cy="50" rx="18" ry="12" fill="#FFB6C1" stroke="#FF69B4" stroke-width="2"/>
  
  <!-- 懒猫尾巴 -->
  <path d="M50 50 Q58 45 60 40 Q58 35 50 40" fill="#FFB6C1" stroke="#FF69B4" stroke-width="2"/>
  
  <!-- 懒猫爪子 -->
  <ellipse cx="20" cy="58" rx="3" ry="2" fill="#FFB6C1" stroke="#FF69B4" stroke-width="1"/>
  <ellipse cx="44" cy="58" rx="3" ry="2" fill="#FFB6C1" stroke="#FF69B4" stroke-width="1"/>
  
  <!-- 懒猫肚子 -->
  <ellipse cx="32" cy="52" rx="12" ry="8" fill="#FFFFFF" opacity="0.8"/>
  
  <!-- 装饰性音符 -->
  <circle cx="12" cy="12" r="2" fill="#FF69B4"/>
  <path d="M12 14 Q10 16 8 18" stroke="#FF69B4" stroke-width="1.5" fill="none"/>
  <path d="M8 18 Q6 20 4 22" stroke="#FF69B4" stroke-width="1.5" fill="none"/>
  
  <!-- 装饰性音符2 -->
  <circle cx="52" cy="12" r="2" fill="#FF69B4"/>
  <path d="M52 14 Q54 16 56 18" stroke="#FF69B4" stroke-width="1.5" fill="none"/>
  <path d="M56 18 Q58 20 60 22" stroke="#FF69B4" stroke-width="1.5" fill="none"/>
</svg>
